<?xml version="1.0" encoding="UTF-8" standalone="no"?>
<svg width="916px" height="752px" viewBox="0 0 916 752" version="1.1" xmlns="http://www.w3.org/2000/svg" xmlns:xlink="http://www.w3.org/1999/xlink">
    <!-- Generator: Sketch 41.2 (35397) - http://www.bohemiancoding.com/sketch -->
    <title>stripes</title>
    <desc>Created with Sketch.</desc>
    <defs></defs>
    <g id="Page-1" stroke="none" stroke-width="1" fill="none" fill-rule="evenodd">
        <g id="lemon-purple" transform="translate(-45.000000, -79.000000)" fill="#BB88DD">
            <g id="stripes" transform="translate(45.000000, 79.000000)">
                <path d="M830.085938,419.609375 C830.085938,419.609375 819.767578,406.535156 808.365234,401.734375 C796.962891,396.933594 788.230469,385.724609 765.076172,385.724609 C741.921875,385.724609 753.673828,397.212891 745.808594,392.933594 C737.943359,388.654297 737.029297,390.849609 730.796875,375.080078 C724.564453,359.310547 714.136719,364.154297 683.273438,354.271484 C652.410156,344.388672 652.326172,348.169922 640.769531,348.169922 C629.212891,348.169922 629.34375,362.875 623.521484,360.810547 C617.699219,358.746094 582.511719,364.871093 582.511719,350.970703 C582.511719,337.070313 584.074219,330.271484 559.076172,327.6875 C534.078125,325.103516 507.970703,333.638672 498.978516,333.638672 C489.986328,333.638672 497.785156,357.658203 490.355469,354.314453 C482.925781,350.970703 463.900391,344.388672 455.646484,326.708984 C447.392578,309.029297 384.472656,325.492187 350.523438,316.652344 C316.574219,307.8125 328.431641,325.708984 318.548828,325.708984 C308.666016,325.708984 326.150391,309.68164 303.126953,303.316406 C280.103516,296.951172 249.632813,302.273437 249.632813,302.273437 C249.632813,302.273437 225.068359,296.998047 216.271484,289.242187 C207.474609,281.486328 188.861328,288.632812 188.861328,288.632812 C188.861328,288.632812 180.673828,303.57422 165.621094,303.574219 C150.568359,303.574217 146.072266,279.619141 125.675781,279.619141 C105.279297,279.619141 100.261719,302.533203 100.261719,302.533203 C100.261719,302.533203 93.421875,312.740234 65.0117188,298.882812 C36.6015625,285.025391 49.9375,277.234375 45.2890625,277.234375 C40.640625,277.234375 35.90625,266.916016 27.109375,276.039062 C18.3125,285.162109 9.01757813,287.662109 9.01757813,287.662109 C9.01757813,287.662109 -1.55859375,331.886716 1.37304688,334.623047 C4.3046875,337.359378 14.2070311,323.654297 32.5625,327.476562 C50.9179689,331.298828 54.9121092,352.712887 74.8730469,352.712891 C94.8339846,352.712894 93.8105467,344.156247 116.335937,351.433594 C138.861328,358.710941 133.349609,339.87695 138.886719,339.876953 C144.423828,339.876956 141.144531,359.078122 151.027344,359.078125 C160.910156,359.078128 165.992187,374.718747 184.367187,371.068359 C202.742188,367.417972 224.375,363.0332 224.375,351.455078 C224.375,339.876956 232.802734,337.833981 236.410156,340.050781 C240.017578,342.267581 232.068359,353.017575 236.890625,358.230469 C241.712891,363.443363 258.935562,392.349606 276.636719,381.708984 C294.337876,371.068363 339.835953,355.015622 352.21875,361.033203 C364.601547,367.050784 360.019546,374.499997 371.119141,374.5 C382.218735,374.500003 402.763687,389.031254 407.759766,389.03125 C412.755844,389.031246 422.792984,386.9707 425.224609,384.339844 C427.656235,381.708988 430.673843,367.636716 437.865234,371.068359 C445.056626,374.500003 454.460937,399.236328 454.460937,399.236328 C454.460937,399.236328 498.488266,401.648434 498.488281,401.648437 C498.488297,401.648441 515.339859,383.099606 527.287109,383.099609 C539.23436,383.099613 542.857437,410.941403 577.480469,410.941406 C612.103501,410.941409 586.699234,417.097653 642.257812,414.019531 C697.816391,410.941409 679.750015,383.708981 712.779297,391.472656 C745.808579,399.236331 734.175796,408.734372 754.09375,414.171875 C774.011704,419.609378 752.271499,402.746091 776.228516,408.458984 C800.185532,414.171878 807.396499,412.902341 811.914062,416.255859 C816.431626,419.609378 823.500015,426.054684 826.792969,426.054687 C830.085922,426.054691 830.085938,419.609375 830.085938,419.609375 Z" id="Path-44"></path>
                <path d="M830.982422,439.417969 C830.982422,439.417969 838.628906,432.011719 824.75,432.011719 C810.871094,432.011719 806.048828,430.042969 806.048828,432.878906 C806.048828,435.714844 803.136719,443.373047 798.445312,443.373047 C793.753906,443.373047 783.371094,443.720703 776.658203,443.720703 C769.945312,443.720703 759.888672,444.80664 765.970703,448.238281 C772.052734,451.669923 772.529296,459.794921 780.501953,457.708984 C788.47461,455.623048 793.970702,457.796874 802.115234,453.017578 C810.259766,448.238282 810.890624,444.025391 817.820312,444.025391 C824.750001,444.025391 830.982422,439.417969 830.982422,439.417969 Z" id="Path-45"></path>
                <path d="M598.609375,449.951172 C598.609375,449.951172 611.443359,444.912109 615.072266,449.212891 C618.701172,453.513672 608.232422,462.027344 621.263672,462.027344 C634.294922,462.027343 653.929688,443.828125 653.929688,461.333984 C653.929688,478.839844 642.248047,500.191408 627.583984,502.601562 C612.919922,505.011717 604.232422,512.179685 598.193359,515.9375 C592.154297,519.695315 526.091797,517.69531 517.984375,529.599609 C509.876953,541.503909 499.083984,513.724611 462.964844,509.228516 C426.845703,504.73242 432.730469,508.271482 418.546875,513.310547 C404.363281,518.349612 379.322266,504.623045 369.287109,508.966797 C359.251953,513.310549 354.5625,536.78906 346.416016,534.355469 C338.269531,531.921877 304.429688,525.451173 299.955078,515.089844 C295.480469,504.728514 283.707031,501.148435 278.037109,508.119141 C272.367188,515.089846 280.013672,521.259763 268.914062,521.259766 C257.814453,521.259768 240.306641,518.265626 237.744141,508.945313 C235.181641,499.624999 221.476562,485.962892 215.416016,492.023438 C209.355469,498.083983 211.509766,504.101564 202.101562,504.101563 C192.693359,504.101561 173.90625,497.367187 164.087891,483.314453 C154.269531,469.261719 143.710938,490.54883 123.730469,490.548828 C103.75,490.548827 102.359375,504.751955 92.671875,497.650391 C82.984375,490.548827 83.9199219,475.541017 61.328125,479.427734 C38.7363281,483.314452 36.7617188,484.099609 27.1171875,477.017578 C17.4726562,469.935547 19.9316406,464.048828 12.8027344,464.048828 C5.67382812,464.048829 4.11132812,460.679688 4.11132812,460.679688 L0.115234375,432.46875 C0.115234375,432.46875 11.3867188,436.03125 11.3867188,428.515625 C11.3867188,421 16.8574219,414.919922 19.9433594,412.550781 C23.0292969,410.181641 44.4414062,409.269531 46.4628906,420.869141 C48.484375,432.46875 51.8476562,436.765625 56.5878906,434.617188 C61.328125,432.46875 56.2207031,422.455078 73.03125,422.455078 C89.8417969,422.455078 97.9238281,437.335938 106.089844,434.902344 C114.255859,432.46875 131.046875,431.123047 131.046875,434.207031 C131.046875,437.291015 129.523438,450.84375 132.435547,450.84375 C135.347656,450.84375 131.720703,433.38086 136.369141,433.380859 C141.017578,433.380859 164.78125,425.841797 166.84375,432.207031 C168.90625,438.572265 164.195312,450.517578 172.861328,450.517578 C181.527344,450.517578 209.351562,447.455078 214.716797,457.621094 C220.082031,467.787109 221.322266,476.779297 229.533203,471.414063 C237.744141,466.048828 230.490234,451.865235 240.720703,451.865234 C250.951172,451.865234 274.019531,450.824219 280.056641,458.816406 C286.09375,466.808594 284.533203,469.392578 292.244141,469.392578 C299.955078,469.392578 291.265625,457.814453 300.105469,454.839844 C308.945312,451.865234 333.402344,439.009766 338.703125,445.4375 C344.003906,451.865234 347.978516,457.646485 353.169922,457.646484 C358.361328,457.646484 361.162109,440.054688 369.265625,442.746094 C377.369141,445.4375 395.65625,435.685547 403.824219,435.685547 C411.992187,435.685547 413.248047,473.564453 422.025391,476.496094 C430.802734,479.427734 431.496094,489.484375 434.929687,489.484375 C438.363281,489.484375 449.224609,493.939453 444.228516,486.683594 C439.232422,479.427734 427.242188,472.146485 427.242188,464.896484 C427.242188,457.646484 413.996094,451.929688 422.292969,442.068359 C430.589844,432.207031 448.027344,431.685547 474.896484,436.876953 C501.765625,442.068359 505.761719,452.205078 505.761719,454.925781 C505.761719,457.646484 516.599609,465.197266 523.355469,458.53125 C530.111328,451.865234 517.753906,442.957031 534.845703,442.957031 C551.9375,442.957031 558.212891,452.103516 569.748047,452.103516 C581.283203,452.103515 598.609375,449.951172 598.609375,449.951172 Z" id="Path-46"></path>
                <path d="M840.146484,398.548828 C840.146484,398.548828 841.599609,411.017578 844.664062,411.017578 C847.728516,411.017578 838.017578,420.703125 835.955078,417.792969 C833.892578,414.882812 812.341797,349.287109 791.492187,331.933594 C770.642578,314.580078 765.277344,310.388672 755.720703,300.158203 C746.164062,289.927734 740.800781,282.302734 745.101562,280.066406 C749.402344,277.830078 759.173828,280.152344 765.517578,286.148437 C771.861329,292.144531 778.210939,308.435546 784.851562,312.083984 C791.492186,315.732422 829.941411,345.203128 829.941406,366.404297 C829.941401,387.605465 840.146484,398.548828 840.146484,398.548828 Z" id="Path-47"></path>
                <path d="M688.888672,274.623047 C694.363281,277.513672 716.125,293.867187 721.294922,297.994141 C726.464844,302.121094 739.300781,308.900391 739.300781,312.136719 C739.300781,315.373047 734.957031,314.503906 729.591797,310.681641 C724.226562,306.859375 669.667969,266.699219 661.849609,260.640625 C654.03125,254.582031 663.216797,247.285156 647.275391,244.025391 C631.333984,240.765625 605.748047,235.595703 598.451172,230.056641 C591.154297,224.517578 575.648437,210.291016 564.222656,210.291016 C552.796875,210.291016 560.203125,222.628906 555.402344,222.628906 C550.601562,222.628906 548.320312,207.011719 544.714844,207.011719 C541.109375,207.011719 535.724609,199.691406 532.617187,211.160156 C529.509766,222.628906 528.447266,225.302735 525.035156,222.912109 C521.623047,220.521484 521.886719,200.736328 513.652344,200.736328 C505.417969,200.736328 460.570312,210.423828 457.785156,205.580078 C455,200.736328 465.390625,186.681641 451.552734,184.076172 C437.714844,181.470703 405.003906,178.689453 405.003906,183.359375 C405.003906,188.029297 401.486328,201.017579 395.121094,198.064453 C388.755859,195.111328 375.767578,197.521484 375.767578,189.029297 C375.767578,180.537109 365.884766,162.205078 356.197266,162.205078 C346.509766,162.205079 337.451172,156.166016 334.019531,156.166016 C330.587891,156.166016 326.070312,166.785156 330.044922,179.232422 C334.019531,191.679687 320.748047,198.455078 320.748047,193.742187 C320.748047,189.029297 327.021484,163.421875 317.445312,157.535156 C307.869141,151.648437 294.335938,152.015625 290.882812,154.775391 C287.429688,157.535156 269.03125,171.5 265.925781,169.132812 C262.820312,166.765625 268.1875,152.753906 259.541016,155.144531 C250.894531,157.535156 238.515625,157.404297 233.693359,157.404297 C228.871094,157.404297 221.726562,183.728515 216.382812,179.90625 C211.039063,176.083985 189.210938,168.785155 182.628906,170.849609 C176.046875,172.914063 170.703125,178.300782 165.859375,178.300781 C161.015625,178.30078 165.166016,195.654298 161.384766,195.654297 C157.603516,195.654296 162.251953,169.958985 157.798828,169.958984 C153.345703,169.958983 150.849609,158.578125 144.136719,158.578125 C137.423828,158.578125 135.990234,167.759767 117.810547,181.707031 C99.6308594,195.654296 86.03125,190.263673 81.1875,192.958984 C76.34375,195.654296 63.7246094,198.648439 58.1640625,206.121094 C52.6035156,213.593749 43.5878906,219.416017 40.1777344,219.416016 C36.7675781,219.416015 32.8339844,221.804687 32.8339844,221.804687 C32.8339844,221.804687 23.4726562,237.251954 23.4726562,240.638672 C23.4726562,244.02539 41.3476562,232.908204 43.9121094,232.908203 C46.4765625,232.908202 53.5976562,234.277345 57.5957031,229.759766 C61.59375,225.242186 70.6699219,217.253907 73.3867188,219.529297 C76.1035156,221.804686 80.6621094,237.666017 88.0703125,233.712891 C95.4785156,229.759765 102.251953,213.425778 110.03125,213.425781 C117.810547,213.425784 117.001953,230.369142 122.845703,230.369141 C128.689453,230.36914 155.376953,238.238282 158.380859,230.021484 C161.384766,221.804686 170.175781,205.085935 182.316406,205.085937 C194.457031,205.08594 220.21875,202.527345 220.21875,207.976562 C220.21875,213.42578 220.001953,221.269532 230.058594,221.269531 C240.115234,221.26953 255.320313,229.484376 262.054688,225.376953 C268.789062,221.26953 270.871094,211.519528 274.673828,211.519531 C278.476562,211.519534 283.255859,209.937501 283.255859,215.603516 C283.255859,221.26953 286.751953,236.478517 293.095703,236.478516 C299.439453,236.478515 339.794922,223.232423 346.548828,229.855469 C353.302734,236.478515 360.333984,247.994142 368.050781,247.994141 C375.767578,247.99414 393.181641,234.44922 397.025391,227.859375 C400.869141,221.26953 412.46875,226.00586 410.382812,229.859375 C408.296875,233.71289 401.626953,253.816407 409.166016,253.816406 C416.705078,253.816405 427.0625,264.34961 441.03125,261.417969 C455,258.486327 467.595703,260.507814 469.832031,265.177734 C472.068359,269.847655 483.136719,275.38672 498.394531,275.386719 C513.652344,275.386718 550.851562,266.808595 557.537109,260.3125 C564.222656,253.816405 570.222656,268.326173 578.998047,268.326172 C587.773438,268.326171 602.5,276.84179 602.5,279.751953 C602.5,282.662116 631.369141,285.96679 636.017578,291.980469 C640.666016,297.994147 631.847656,309.769525 642.208984,312.376953 C652.570312,314.984382 662.015625,326.755853 672.572266,323.128906 C683.128906,319.50196 690.142578,334.705072 698.050781,332.621094 C705.958984,330.537116 720.728516,334.880853 725.160156,339.550781 C729.591797,344.22071 733.285156,352.843759 741.255859,352.84375 C749.226562,352.843741 759.410156,343.246102 763.453125,343.246094 C767.496094,343.246085 767.646484,326.634759 759.197266,319.505859 C750.748047,312.37696 741.669922,293.462884 731.482422,289.509766 C721.294922,285.556647 699.880859,273.398439 692.472656,266.855469 C685.064453,260.312499 683.044922,261.988282 683.044922,264.421875 C683.044922,266.855468 683.414062,271.732422 688.888672,274.623047 Z" id="Path-48"></path>
                <path d="M742.478516,251.101562 C738.373047,251.101562 721.539063,251.947266 705.185547,236.136719 C688.832031,220.326172 677.734375,235.533203 669.783203,226.386719 C661.832031,217.240234 656.292969,208.03125 656.292969,199.191406 C656.292969,190.351562 650.90625,181.511719 642.066406,181.511719 C633.226563,181.511719 617.439453,186.722656 607.923828,184.117187 C598.408203,181.511719 585.029297,176.427734 585.029297,169.716797 C585.029297,163.005859 571.238281,168.392578 567.261719,162.505859 C563.285156,156.619141 577.121094,147.777344 563.285156,143.802734 C549.449219,139.828125 519.28125,154.75 513.242188,146.257812 C507.203125,137.765625 507.679688,128.923828 495.408203,128.923828 C483.136719,128.923828 467.875,134.462891 461.4375,139.132812 C455,143.802734 464.716797,150.474609 456.767578,150.474609 C448.818359,150.474609 454.816406,140.654297 450.861328,140.654297 C446.90625,140.654297 421.560547,137.525391 421.560547,130.271484 C421.560547,123.017578 427.101563,115.566406 414.089844,115.566406 C401.078125,115.566406 406.011719,125.427734 398.472656,125.427734 C390.933594,125.427734 371.841797,131.466797 371.841797,122.300781 C371.841797,113.134766 378.96875,109.332031 370.279297,106.726562 C361.589844,104.121094 356.246094,106.101562 356.246094,110.833984 C356.246094,115.566406 349.273438,122.800781 346.710938,122.800781 C344.148438,122.800781 325.947266,109.791016 325.947266,105.96875 C325.947266,102.146484 329.398438,85.3749998 318.648438,87.4609375 C307.898438,89.5468752 308.246094,89.3515626 301.859375,93.5214844 C295.472656,97.6914061 283.394531,98.1249992 278.529297,107.943359 C273.664063,117.76172 245.580078,122.99414 245.580078,116.914062 C245.580078,110.833985 248.164063,101.166016 244.080078,101.166016 C239.996094,101.166016 228.287109,95.4316398 222.921875,101.6875 C217.556641,107.94336 197.984375,115.242187 194.878906,119.021484 C191.773438,122.800782 183.691406,115.658202 179.890625,120.542969 C176.089844,125.427735 170.183594,130.578124 166.902344,125.560547 C163.621094,120.54297 176.695313,109.249999 184.755859,106.490234 C192.816406,103.73047 202.310546,95.4121095 197.355469,95.4121094 C192.400391,95.4121093 170.353516,105.662109 164.294922,108.248047 C158.236328,110.833985 139.761719,114.949218 130.052734,114.949219 C120.34375,114.94922 103.248047,125.701171 103.248047,125.701172 C103.248047,125.701173 99.1660156,125.527344 99.1660156,125.527344 C99.1660156,125.527344 124.185547,97.6796876 127.119141,99.6835937 C130.052734,101.6875 134.396484,98.0078125 144.410156,92.734375 C154.423828,87.4609375 175.476562,76.7695314 185.177734,76.7695312 C194.878906,76.7695311 204.59375,63.5839844 222.253906,67.2128906 C239.914062,70.8417969 239.001953,78.2695312 253.771484,74.1425781 C268.541016,70.015625 262.873047,63.4355466 269.0625,59.8066406 C275.251953,56.1777346 275.121094,53.0507812 291.216797,53.0507812 C307.3125,53.0507812 299.666016,53.0703125 305.726562,61.7167969 C311.787109,70.3632812 308.25,73.859375 320.042969,68.8203125 C331.835938,63.78125 321.953125,48.8398437 332.357422,46.7753906 C342.761719,44.7109375 361.568359,40.1738281 368.302734,50.9453125 C375.037109,61.7167969 375.732422,58.5468749 379.359375,58.546875 C382.986328,58.5468751 383.705078,53.0507811 386.962891,53.0507812 C390.220703,53.0507814 416.351562,50.2949217 416.351562,56.0058594 C416.351562,61.716797 414.246094,69.626953 425.734375,71.8847656 C437.222656,74.1425783 428.423828,60.2851561 434.136719,60.2851562 C439.849609,60.2851564 469.669922,60.7851561 472.277344,64.8027344 C474.884766,68.8203126 477.685547,80.2031229 492.216797,80.203125 C506.748047,80.2031271 517.742188,76.5937482 524.734375,80.2031232 C531.726562,83.8124982 522.212891,98.9082049 528.078125,103.578125 C533.943359,108.248045 538.417969,105.248047 538.417969,105.248047 C538.417969,105.248047 532.640625,89.3261736 544.261719,89.3261719 C555.882812,89.3261701 568.173828,88.8457049 571.607422,93.1484375 C575.041016,97.4511701 573.300781,105.958986 587.333984,108.396484 C601.367188,110.833983 620.804688,117.384767 626.169922,114.109375 C631.535156,110.833983 637.748047,120.755861 643.417969,125.513672 C649.087891,130.271483 646.1875,144.609377 651.240234,144.609375 C656.292969,144.609373 668.634766,152.949221 673.4375,152.949219 C678.240234,152.949217 692.833984,155.576174 695.419922,160.050781 C698.005859,164.525389 695.982422,180.316408 703.369141,185.486328 C710.755859,190.656248 719.462891,195.695314 717.248047,202.060547 C715.033203,208.425779 716.466797,214.464846 720.550781,214.464844 C724.634766,214.464842 731.539063,231.101564 739.078125,231.101562 C746.617187,231.101561 742.511719,238.185549 746.095703,241.095703 C749.679688,244.005858 746.583984,251.101562 742.478516,251.101562 Z" id="Path-49"></path>
                <path d="M654.1875,163.123047 C654.1875,163.123047 659.443359,170.072266 664.548828,170.072266 C669.654297,170.072266 675.955078,168.072266 672.371094,165.597656 C668.787109,163.123047 664.617188,155.193359 658.208984,155.193359 C651.800781,155.193359 654.1875,163.123047 654.1875,163.123047 Z" id="Path-50"></path>
                <path d="M839.017578,381.435547 C839.017578,381.435547 835.238281,373.269531 835.238281,367.794922 C835.238281,362.320312 825.160156,336.257812 825.160156,333.171875 C825.160156,330.085938 825.486328,317.074219 815.103516,302.154297 C804.720703,287.234375 813.431641,274.375 807.001953,270.226562 C800.572266,266.078125 788.931641,271.378906 783.197266,252.720703 C777.462891,234.0625 780.744141,228.023438 775.03125,218.640625 C769.318359,209.257812 758.154297,194.466797 749.683594,189.449219 C741.212891,184.431641 724.769531,178.501953 721.142578,169.726562 C717.515625,160.951172 717.035156,156.259766 709.412109,150.742188 C701.789062,145.224609 689.496094,135.839844 686.714844,129.933594 C683.933594,124.027344 683.261719,116.228516 686.714844,116.228516 C690.167969,116.228516 692.470702,126.089844 697.097656,126.089844 C701.72461,126.089844 707.785155,126.744141 707.785156,124.158203 C707.785157,121.572266 712.107423,108.779297 716.625,108.779297 C721.142577,108.779297 738.953122,112.601562 738.953125,122.484375 C738.953128,132.367188 754.310018,146.746094 758.001953,146.746094 C761.693889,146.746094 773.140622,173.109375 773.140625,181.279297 C773.140628,189.449219 779.482419,221.941406 787.236328,221.941406 C794.990237,221.941406 806.742185,223.763672 806.742188,231.455078 C806.74219,239.146484 818.015615,249.898437 818.015625,254.742188 C818.015635,259.585938 816.082036,271.859375 820.621094,271.859375 C825.160151,271.859375 832.98438,279.136719 829.072266,286.216797 C825.160151,293.296875 824.597661,306.808594 829.917969,306.808594 C835.238276,306.808594 836.804692,317.542969 836.804688,325.357422 C836.804683,333.171875 834.589849,350.681641 839.042969,353.224609 C843.496089,355.767578 844.539067,366.501953 844.539062,373.96875 C844.539058,381.435547 842.974609,387.261719 842.974609,387.261719 L839.017578,381.435547 Z" id="Path-52"></path>
                <path d="M694.302734,99.375 C694.302734,99.375 685.416016,94.5742188 685.416016,99.2226563 C685.416016,103.871094 679.640625,121.947265 673.644531,116.470703 C667.648438,110.994141 665.324219,108.367187 661.044922,98.1367188 C656.765625,87.9062505 649.078125,81.8066401 637.152344,79.1992188 C625.226562,76.5917974 624.814453,71.0761719 617.039062,68.9902344 C609.263672,66.9042969 599.902344,76.2011719 594.189453,72.5957031 C588.476562,68.9902344 571.275391,64.4726562 571.275391,59.2597656 C571.275391,54.0468751 568.710938,48.3339844 563.345703,48.3339844 C557.980469,48.3339844 555.917969,49.4863281 555.917969,54.3730469 C555.917969,59.2597656 544.859375,54.8964844 542.775391,50.4199219 C540.691406,45.9433594 537.041016,43.5332031 533.240234,39.7109375 C529.439453,35.8886719 519.515625,27.2421875 512.259766,27.2421875 C505.003906,27.2421875 478.916016,18.9453125 478.916016,23.09375 C478.916016,27.2421875 466.490234,23.9433594 453.632812,21.5097656 C440.775391,19.0761718 433,7.08789063 428.830078,7.08789063 C424.660156,7.08789063 410.193359,10.5195313 403.113281,7.39257813 C396.033203,4.265625 366.402344,5.76562506 366.402344,5.76562506 C366.402344,5.76562506 425.300781,-1.06249985 460.923828,1.02148447 C496.546875,3.10546879 536.673828,7.70117158 541.648438,14.6054688 C546.623047,21.5097659 545.755859,31.6328122 553.03125,31.6328125 C560.306641,31.6328128 553.8125,18.2285153 572.970703,26.2890625 C592.128906,34.3496097 595.279297,41.9511735 602.554688,41.9511719 C609.830078,41.9511703 629.03125,42.7792985 629.03125,46.5996094 C629.03125,50.4199203 626.292969,54.662111 633.896484,56.9609375 C641.5,59.259764 643.169922,47.0175797 650.708984,53.1386719 C658.248047,59.259764 653.339844,67.5859429 658.878906,67.5859375 C664.417969,67.5859321 670.630859,68.3984353 670.630859,73.7988281 C670.630859,79.199221 666.681641,89.3710915 680.492188,89.3710937 C694.302734,89.371096 697.259766,84.160154 700.302734,86.765625 C703.345703,89.371096 700.759766,95.1718728 700.759766,98.4316406 C700.759766,101.691408 694.302734,99.375 694.302734,99.375 Z" id="Path-53"></path>
                <path d="M837.013672,445.257812 C834.796875,442.498047 828.367188,442.173828 825.240234,445.779297 C822.113281,449.384766 808.927734,456.572265 808.927734,459.289062 C808.927734,462.00586 803.652344,474.798828 797.830078,474.798828 C792.007812,474.798828 783.90625,480.251955 781.820312,485.269531 C779.734375,490.287108 780.755859,496.847654 776.107422,496.847656 C771.458984,496.847658 766.505859,492.832033 759.380859,499.412109 C752.255859,505.992186 749.279297,519.287111 743.046875,519.287109 C736.814453,519.287108 732.837891,523.587892 732.837891,528.083984 C732.837891,532.580076 745.523438,536.947267 754.667969,534.339844 C763.8125,531.73242 759.318359,524.541017 765.898438,521.914062 C772.478516,519.287108 786.400391,519.544924 791.070312,511.378906 C795.740234,503.212889 799.498047,485.859373 804.212891,485.859375 C808.927734,485.859377 819.591797,471.021484 819.591797,467.742188 C819.591797,464.462891 821.871094,462.896485 827.0625,456.990234 C832.253906,451.083984 839.230469,448.017578 837.013672,445.257812 Z" id="Path-54"></path>
                <path d="M435.224609,591.064453 C430.033203,594.865234 433.332031,607.355469 428.294922,607.355469 C423.257813,607.355469 417.533203,613.720703 424.646484,617.5 C431.759766,621.279297 436.85547,622.34375 441.177734,618.347656 C445.499999,614.351562 450.867188,636.375 444.111328,636.375 C437.355468,636.375 434.294922,632.207031 431.294922,634.291016 C428.294922,636.375 421.849609,650.386719 428.537109,652.644531 C435.224609,654.902344 441.78711,657.160156 444.199219,660.941406 C446.611327,664.722656 461.902343,671.628906 469.677734,666.285156 C477.453126,660.941406 512.183589,654.296875 512.183594,648.779297 C512.183599,643.261719 512.33594,639.148941 520.328125,634.400391 C528.32031,629.65184 545.02344,625.594254 547.78125,627.623047 C550.53906,629.65184 551.300784,636.095703 564.050781,636.095703 C576.800778,636.095703 591.744143,629.210937 591.744141,623.779297 C591.744138,618.347656 593.675784,615.269531 604.384766,611.3125 C615.093747,607.355469 623.281253,609.683594 631.189453,606.925781 C639.097653,604.167969 647.570315,590.636719 640.640625,588.572266 C633.710935,586.507812 633.71094,575.908203 633.710938,572.650391 C633.710935,569.392578 642.833987,555.013672 637.011719,549.105469 C631.18945,543.197266 617.39844,534.357422 608.558594,539.548828 C599.718747,544.740234 598.199222,552.863281 591.595703,552.863281 C584.992185,552.863281 573.050784,552.212891 568.550781,555.339844 C564.050778,558.466797 565.791018,565.722656 562.337891,565.722656 C558.884763,565.722656 553.326175,565.722656 548.501953,565.722656 C543.677732,565.722656 545.416018,574.236328 540.529297,579.384766 C535.642575,584.533203 526.218753,594.958984 519.201172,590.09375 C512.183591,585.228516 497.677733,591.982422 487.96875,591.982422 C478.259767,591.982422 475.710936,577.560547 465.355469,584.771484 C455.000001,591.982422 468.929686,600.150391 461.964844,600.150391 C455.000001,600.150391 456.59961,591.546875 451.646484,591.546875 C446.693359,591.546875 440.416016,587.263672 435.224609,591.064453 Z" id="Path-55"></path>
                <path d="M386.382812,630.125 C386.382812,630.125 385.033203,641.398437 390.314453,641.398437 C395.595703,641.398437 404.609375,647.609375 401.113281,653.474609 C397.617188,659.339844 391.773438,663.814453 377.720703,659.818359 C363.667968,655.822266 351.003906,644.376953 342.185547,644.376953 C333.367187,644.376953 325.027344,646.310547 325.027344,653.064453 C325.027344,659.818359 314.927734,663.96875 310.083984,657.191406 C305.240234,650.414062 311.5625,628.5625 304.023437,625.128906 C296.484375,621.695312 293.726562,615.789062 287.339844,615.789062 C280.953125,615.789062 274.003906,611.617187 274.003906,618.373047 C274.003906,625.128906 283.863281,619.394532 286.992187,624.759766 C290.121094,630.125 297.744141,629.489145 297.744141,633.708984 C297.744141,637.928824 304.324219,657.296876 295.658203,654.169922 C286.992187,651.042968 268.748047,643.744142 262.382812,648.957031 C256.017578,654.169921 252.195312,645.043832 246.830078,641.486328 C241.464844,637.928824 221.201172,639.683594 221.201172,634.904297 C221.201172,630.125 218.943359,622.285157 211.144531,622.285156 C203.345703,622.285156 199.716797,632.771484 202.824219,638.574219 C205.931641,644.376954 179.041015,643.769532 176.435547,636.947266 C173.830078,630.125 164.121094,626.65039 159.277344,630.777344 C154.433594,634.904298 156.457031,647.068359 150.458984,642.007812 C144.460937,636.947266 127.695312,633.445312 123.892578,627.865234 C120.089844,622.285156 110.207031,617.373047 106.253906,617.373047 C102.300781,617.373047 93.4609375,614.529297 86.2050781,614.529297 C78.9492187,614.529297 80.3183594,601.583984 75.0175781,599.019531 C69.7167969,596.455079 60.9824219,593.349609 60.9824219,593.349609 C60.9824219,593.349609 35.5683594,558.96875 30.0292969,541.025391 C24.4902344,523.082031 39.6015625,539.806641 43.4042969,547.798828 C47.2070312,555.791016 57.978516,565.13086 63.8007812,565.130859 C69.6230465,565.130859 61.2851566,548.513672 65.4121094,548.513672 C69.5390621,548.513671 82.9394535,552.361329 82.9394531,562.222656 C82.9394528,572.083984 84.3105472,580.402344 89.1738281,580.402344 C94.037109,580.402343 89.1933597,562.353516 96.1230469,562.353516 C103.052734,562.353515 114.357422,569.826172 119.125,569.826172 C123.892578,569.826171 112.001953,607.355465 122.558594,609.419922 C133.115234,611.484378 143.345703,617.585934 143.345703,609.941406 C143.345703,602.296878 136.087891,604.531247 134.025391,601.775391 C131.96289,599.019535 133.677735,581.205079 144.951172,571.779297 C156.224609,562.353515 160.025391,562.09375 164.695312,573.017578 C169.365234,583.941406 183.158203,578.904297 183.158203,583.552734 C183.158203,588.201171 183.355469,598.041012 186.787109,598.041016 C190.21875,598.041019 193.585938,581.382813 196.822266,581.382812 C200.058593,581.382812 203.923828,565.115235 211.505859,569.066406 C219.08789,573.017578 231.185547,569.439454 231.185547,576.496094 C231.185547,583.552734 230.052735,592.484375 238.441406,592.484375 C246.830078,592.484375 262.660157,594.201172 262.660156,594.201172 C262.660156,594.201171 263.896485,575.714844 272.173828,575.714844 C280.451172,575.714843 282.554688,580.541012 286.683594,591.158203 C290.8125,601.775394 290.507813,576.109375 298.283203,576.109375 C306.058593,576.109375 333.816407,575.4375 333.816406,582.017578 C333.816406,588.597656 331.884766,592.072266 325.824219,589.292969 C319.763672,586.513671 311.966797,589.232419 311.966797,593.636719 C311.966797,598.041019 318.027344,603.615231 323.871094,600.828125 C329.714843,598.041019 340.964844,597.179684 348.242188,597.179687 C355.519531,597.179691 349.285157,611.015622 355.324219,611.015625 C361.363281,611.015628 358.386719,621.398434 363.751953,621.398437 C369.117187,621.398441 365.294922,615.835934 365.294922,610.125 C365.294922,604.414066 374.3125,596.113278 380.347656,600.9375 C386.382812,605.761722 387.775391,610.43945 385.191406,613.90625 C382.607422,617.37305 386.382812,630.125 386.382812,630.125 Z" id="Path-56"></path>
                <path d="M514.964844,696.201172 C505.777344,696.201172 502.128906,702.171875 499.390625,705.214844 C496.652344,708.257812 507.732422,714.34375 515.355469,709.779297 C522.978516,705.214844 526.064453,705.978516 529.539062,705.978516 C533.013672,705.978516 533.6875,687.693359 524.521484,691.947266 C515.355469,696.201172 524.152344,696.201172 514.964844,696.201172 Z" id="Path-57"></path>
                <path d="M602.710937,678.242187 C595.78125,678.242187 567.675781,671.835937 562.115234,678.089844 C556.554687,684.34375 562.115234,688.841796 557.771484,692.294922 C553.427734,695.748048 553.275391,708.347656 560.009766,703.503906 C566.744141,698.660157 567.763671,709.080868 584.054688,699.527344 C600.345704,689.97382 609.818358,695.855469 616.072266,690.318359 C622.326173,684.78125 651.865233,677.482422 651.865234,672.464844 C651.865236,667.447265 654.666014,656.154297 660.335938,656.154297 C666.005861,656.154297 674.283202,651.65625 674.283203,647.681641 C674.283204,643.707031 663.878905,631.392578 671.697266,631.392578 C679.515626,631.392578 685.291014,633.302734 688.898438,629.849609 C692.505861,626.396484 693.373046,621.683594 699.955078,615.275391 C706.537111,608.867187 707.666014,595.726562 700.064453,600.375 C692.462892,605.023437 688.578124,614.710938 684.318359,614.710937 C680.058595,614.710937 674.152342,607.957032 667.244141,617.318359 C660.335939,626.679687 664.919921,640.710936 659.75,640.710937 C654.580079,640.710939 643.154296,634.740233 640.396484,641.210937 C637.638673,647.681642 634.316405,654.222655 634.316406,657.654297 C634.316408,661.085939 636.964842,660.587889 630.904297,664.193359 C624.843751,667.79883 624.318358,676.964842 620.195312,676.964844 C616.072267,676.964845 609.640625,678.242187 602.710937,678.242187 Z" id="Path-58"></path>
                <path d="M840.070312,447.324219 C840.070312,447.324219 834.466797,460.917969 831.882812,464.503906 C829.298828,468.089844 819.046875,482.009766 819.046875,489.265625 C819.046875,496.521484 815.027344,502.734375 812.964844,502.734375 C810.902344,502.734375 804.275391,507.794922 802.234375,511.248047 C800.193359,514.701172 785.076172,528.578125 785.076172,532.380859 C785.076172,536.183594 789.226562,548.365234 782.470703,550.429688 C775.714844,552.494141 756.861328,565.636719 756.861328,569.4375 C756.861328,573.238281 755.580078,592.830078 751.105469,592.830078 C746.630859,592.830078 734.792969,595.607422 730.644531,600.105469 C726.496094,604.603516 720.023438,618.113281 717.460938,618.113281 C714.898438,618.113281 709.554688,624.326172 713.507812,624.326172 C717.460938,624.326172 723.240234,625.5 729.277344,618.917969 C735.314453,612.335938 743.072266,613.621094 739.117188,616.269531 C735.162109,618.917969 720.197266,637.597656 713.269531,633.796875 C706.341797,629.996094 698.261719,645.916016 700.650391,645.916016 C703.039063,645.916016 708.556641,651.761719 704.603516,656.431641 C700.650391,661.101562 684.992187,657.974609 682.927734,661.080078 C680.863281,664.185547 671.873047,669.027344 668.570312,672.677734 C665.267578,676.328125 659.166016,686.863281 654.169922,686.863281 C649.173828,686.863281 637.878906,685.839844 632.1875,688.404297 C626.496094,690.96875 621.566406,697.8125 615.091797,697.8125 C608.617188,697.8125 585.246094,699.898438 585.246094,705.068359 C585.246094,710.238281 588.917969,711.912109 582.119141,714.017578 C575.320312,716.123047 566.175781,706.242188 561.484375,711.412109 C556.792969,716.582031 561.464844,723.662109 558.357422,723.662109 C555.25,723.662109 551.796875,724.683594 551.796875,720.556641 C551.796875,716.429688 546.650391,709.324219 537.634766,713.300781 C528.619141,717.277344 517.890625,717.494141 517.890625,720.578125 C517.890625,723.662109 492.371094,722.078125 484.615234,722.078125 C476.859375,722.078125 452.556641,723.777344 449.970703,718.539062 C447.384766,713.300781 426.599609,713.652344 426.599609,717.865234 C426.599609,722.078125 425.923828,720.470703 420.753906,720.470703 C415.583984,720.470703 393.039062,711.916016 389.085938,714.890625 C385.132813,717.865234 378.222656,720.970703 375.443359,720.970703 C372.664062,720.970703 370.753906,710.435547 370.753906,710.435547 C370.753906,710.435547 347.490234,708.916016 342.363281,713.390625 C337.236328,717.865234 342.230469,727.751953 339.167969,724.361328 C336.105469,720.970703 327.111328,731.576172 324.027344,726.273438 C320.943359,720.970703 326.980469,712.394531 307.410156,712.394531 C287.839844,712.394531 273.003906,723.207031 273.003906,717.800781 C273.003906,712.394531 261.037109,702.359375 254.693359,702.359375 C248.349609,702.359375 243.005859,706.701172 232.775391,699.578125 C222.544922,692.455078 214.726562,689.195312 208.882812,689.195312 C203.039062,689.195312 177.408203,691.259766 172.412109,685.916016 C167.416016,680.572266 164.787109,678.507812 159.638672,678.507812 C154.490234,678.507812 134.853516,669.232422 134.853516,669.232422 C134.853516,669.232422 159.480469,690.732422 174.837891,697.900391 C190.195312,705.068359 205.873047,717.597656 209.632812,714.996094 C213.392578,712.394531 222.017578,711.826172 226.166016,711.826172 C230.314453,711.826172 240.175781,713.173828 245.193359,713.173828 C250.210938,713.173828 271.802734,724.251953 276.646484,727.705078 C281.490234,731.158203 280.851562,741.019531 294.130859,738.414062 C307.410156,735.808594 303.947266,726.925781 308.271484,726.925781 C312.595703,726.925781 302.144531,738.546875 319.587891,742.130859 C337.03125,745.714844 351.951172,738.763672 358.359375,742.197266 C364.767578,745.630859 399.560547,744.085938 414.244141,747.888672 C428.927734,751.691406 434.703125,739.220703 440.589844,742.175781 C446.476562,745.130859 451.667969,751.363281 463.072266,751.363281 C474.476562,751.363281 510.490234,737.394531 524.0625,741.023438 C537.634766,744.652344 541.050781,746.542969 547.4375,743.783203 C553.824219,741.023438 552.367188,730.814453 558.537109,730.814453 C564.707031,730.814453 559.322266,737.375 567.619141,737.375 C575.916016,737.375 588.730469,742.589844 590.794922,739.982422 C592.859375,737.375 589.925781,729.183594 599.460938,729.183594 C608.996094,729.183594 615.384766,733.917969 622.3125,730.421875 C629.240234,726.925781 641.861328,726.818359 641.861328,719.996094 C641.861328,713.173828 634.416016,704.617188 644.292969,704.617188 C654.169922,704.617188 655.5,711.763672 667.316406,702.554688 C679.132812,693.345703 696.791016,690.521484 702.873047,685.873047 C708.955078,681.224609 707.410156,678.130859 714.666016,669.605469 C721.921875,661.080078 734.820312,645.841797 739.101562,647.927734 C743.382812,650.013672 752.332031,643.695312 757.371094,636.634766 C762.410156,629.574219 783.78125,607.652344 783.78125,603.878906 C783.78125,600.105469 783.566406,585.65625 790.689453,581.486328 C797.8125,577.316406 797.257812,552.96875 805.111328,549.537109 C812.964844,546.105469 817.863281,542.9375 820.121094,538.808594 C822.378906,534.679688 811.128906,529.488281 815.625,524.123047 C820.121094,518.757812 823.681641,516.957031 829.699219,512.113281 C835.716797,507.269531 839.167969,498.429688 837.105469,492.695312 C835.042969,486.960938 838.996094,479.490234 838.996094,474.646484 C838.996094,469.802734 844.861328,457.898438 844.861328,457.898438 L846.771484,446.058594 L840.070312,447.324219 Z" id="Path-59"></path>
                <path d="M850.242188,450.013672 C850.242188,450.013672 844.746094,459.789062 844.746094,465.828125 C844.746094,471.867187 840.269531,479.992187 840.269531,482.923828 C840.269531,485.855469 838.533203,507.857422 838.533203,507.857422 C838.533203,507.857422 834.058594,510.769531 834.058594,515.960937 C834.058594,521.152344 834.578125,528.490234 834.578125,533.466797 C834.578125,538.443359 831.605469,555.253906 828.867188,555.253906 C826.128906,555.253906 822.591797,586.550781 814.488281,591.373047 C806.384766,596.195312 804.146484,595.021484 801.541016,601.582031 C798.935547,608.142578 799.976563,606.535156 799.976563,611.552734 C799.976563,616.570312 796.306641,630.796875 792.505859,630.796875 C788.705078,630.796875 786.46875,628.322266 780.039062,637.009766 C773.609375,645.697266 766.660156,650.021484 766.660156,653.974609 C766.660156,657.927734 757.970703,660.923828 754.017578,667.09375 C750.064453,673.263672 740.941406,689.248047 738.074219,686.294922 C735.207031,683.341797 737.988281,694.789062 740.376953,692.724609 C742.765625,690.660156 756.820312,678.78125 759.947266,672.9375 C763.074219,667.09375 771.585939,657.128906 779.753906,654 C787.921874,650.871094 806.875001,638.728516 810.681641,632.474609 C814.48828,626.220703 814.875001,611.035156 817.806641,611.035156 C820.73828,611.035156 828.359376,606.365234 831.46875,597.15625 C834.578124,587.947266 830.490236,595.09375 830.490234,584.841797 C830.490233,574.589844 829.050783,577.697266 836.898438,570.115234 C844.746092,562.533203 844.130861,560.949219 844.130859,555.410156 C844.130858,549.871094 842.783205,528.910156 845.152344,528.910156 C847.521483,528.910156 851.951173,529.669922 851.951172,520.287109 C851.95117,510.904297 851.429689,500.197266 851.429688,493.09375 C851.429686,485.990234 850.908205,474.871094 850.908203,467.962891 C850.908202,461.054687 852.818361,456.90625 854.904297,452.041016 C856.990233,447.175781 850.242188,450.013672 850.242188,450.013672 Z" id="Path-60"></path>
                <path d="M859.722656,454.058594 C862.65625,454.058594 863.177734,465.005859 868.021484,468.958984 C872.865234,472.912109 875.470703,476.427734 875.470703,481.425781 C875.470703,486.423828 875.013672,496.285156 875.013672,499.759766 C875.013672,503.234375 881.574219,506.015625 881.574219,509.621094 C881.574219,513.226562 884.660156,524.130859 881.074219,527.779297 C877.488281,531.427734 884.091797,537.359375 879.552734,540.769531 C875.013672,544.179688 877.097656,552.867188 877.097656,552.867188 C877.097656,552.867188 856.228516,591.421875 853.837891,594.289062 C851.447266,597.15625 851.121094,586.578125 855.421875,576.912109 C859.722656,567.246094 868.585938,546.894531 866.542969,543.832031 C864.5,540.769531 870.734374,532.537109 870.734375,525.761719 C870.734376,518.986328 871.101563,512.884766 868.822266,506.322266 C866.542968,499.759766 867.234375,492.681641 863.478516,492.681641 C859.722656,492.681641 854.070312,486.121094 856.896484,480.929688 C859.722656,475.738281 858.460937,471.720703 858.460938,466.572266 C858.460938,461.423828 857.439453,451.410156 857.439453,451.410156 C857.439453,451.410156 856.789063,454.058594 859.722656,454.058594 Z" id="Path-61"></path>
                <path d="M851.425781,432.904297 C851.425781,437.748047 854.224609,441.896484 858.027344,441.896484 C861.830078,441.896484 861.828125,448.435547 864.914062,448.435547 C868,448.435547 873.865234,449.412109 873.865234,455.494141 C873.865234,461.576172 882.03125,466.287109 882.03125,469.720703 C882.03125,473.154297 891.396484,475.216797 891.396484,486.316406 C891.396484,497.416016 895.849609,499.958984 895.849609,502.738281 C895.849609,505.517578 895.761719,508.603516 895.761719,508.603516 C895.761719,508.603516 905.054688,486.339844 905.054688,482.755859 C905.054688,479.171875 899.685547,479.673828 895.541016,474.697266 C891.396484,469.720703 895.888672,465.8125 891.414062,462.402344 C886.939453,458.992187 890.466797,448.783203 884.353516,448.783203 C878.240234,448.783203 871.992188,448.304687 871.992188,443.613281 C871.992188,438.921875 871.798828,434.771484 867.34375,434.771484 C862.888672,434.771484 858.652344,434.445312 858.652344,434.445312 L854.025391,428.40625 C854.025391,428.40625 851.425781,428.060547 851.425781,432.904297 Z" id="Path-62"></path>
                <path d="M879.609375,432.318359 C883.714844,432.318359 888.425781,438.052734 893.054687,438.052734 C897.683594,438.052734 899.421875,435.140625 902.505859,435.140625 C905.589844,435.140625 913.762693,433.625977 913.762693,433.625977 C913.762693,433.625977 914.8858,422.525435 915.124998,417.749024 C915.339902,413.457726 915.124998,406.422852 915.124998,406.422852 C915.124998,406.422852 907.541016,404.363281 905.023437,407.490234 C902.505859,410.617188 902.828125,415.244141 897.941406,415.244141 C893.054687,415.244141 892.640625,415.851563 892.640625,422.152344 C892.640625,428.453125 887.035156,420.308594 883.322266,420.308594 C879.609375,420.308594 876.523437,425.5625 872.222656,422.935547 C867.921875,420.308594 860.644531,423.261719 860.644531,423.261719 C860.644531,423.261719 859.753906,426.371094 865.988281,429.474609 C872.222656,432.578125 875.503906,432.318359 879.609375,432.318359 Z" id="Path-63"></path>
                <path d="M849.380859,416.486328 C849.380859,421 845.209961,424.478516 848.772461,425.5 C852.334961,426.521484 857.591797,425.458984 857.591797,420.972656 C857.591797,416.486328 860.274414,417.073242 862.783203,417.073242 C865.291992,417.073242 874.066406,416.302734 876.412109,413.359375 C878.757813,410.416016 885.957031,408.058594 886.989258,406.603516 C888.021484,405.148438 897.469727,396.808594 897.469727,394.212891 C897.469727,391.617188 893.831055,390.834961 897.208984,386.415039 C900.586914,381.995117 897.806641,376.413086 899.457031,374.175781 C901.107422,371.938477 904.179687,370.201172 906.211914,370.201172 C908.244141,370.201172 909.68848,370.113281 910.981445,368.462891 C912.27441,366.8125 914.946289,363.792969 914.946289,363.792969 C914.946289,363.792969 913.53418,332.972656 911.644531,326.836914 C909.754883,320.701172 907.236328,338.552734 903.847656,341.311523 C900.458984,344.070313 905.032227,351.163087 903.56543,352.955078 C902.098633,354.74707 901.613281,361.50293 900.535156,361.50293 C899.457031,361.502929 891.445312,365.640626 891.445312,367.920898 C891.445313,370.201171 885.884766,372.699219 885.884766,377.553711 C885.884766,382.408202 883.018555,386.761716 883.018555,389.955078 C883.018555,393.148441 876.435547,396.547848 873.916992,398.524414 C871.398438,400.50098 869.162109,407.833012 866.685547,407.833008 C864.208984,407.833003 862.853516,404.358395 860.222656,407.919922 C857.591797,411.481448 849.380859,411.972656 849.380859,416.486328 Z" id="Path-64"></path>
                <path d="M853.679688,405.232422 C853.679688,403.841797 855.581055,395.773437 858.263672,395.773437 C860.946289,395.773437 862.75,392.40625 865.616211,385.629883 C868.482422,378.853516 871.425781,371.500977 871.425781,369.329102 C871.425781,367.157227 878.029297,360.837891 881.330078,351.8125 C884.630859,342.787109 881.775391,346.230469 883.165039,336.966797 C884.554688,327.703125 879.624023,312.999023 882.556641,310.414062 C885.489258,307.829102 883.837891,302.595703 886.791992,299.228516 C889.746094,295.861328 889.746094,290.117187 889.746094,285.012695 C889.746094,279.908203 893.797852,277.726562 893.797852,276.53125 C893.797852,275.335937 898.31543,281.188477 898.31543,291.375977 C898.31543,301.563477 892.287109,298.241211 892.287109,305.452148 C892.287109,312.663086 889.733398,324.052734 891.765625,326.638672 C893.797852,329.22461 898.163086,341.397461 895.980469,344.177734 C893.797852,346.958008 894.59082,360.836914 890.691406,360.836914 C886.791992,360.836914 879.332031,368.881836 879.332031,372.564453 C879.332031,376.247071 881.655273,380.841796 877.756836,382.655273 C873.858398,384.46875 870.807617,392.179687 869.351562,392.179687 C867.895508,392.179688 862.944336,397.40332 862.944336,399.727539 C862.944336,402.051758 860.75,404.995109 858.610352,404.995117 C856.470703,404.995125 853.679688,406.623047 853.679688,405.232422 Z" id="Path-65"></path>
                <path d="M878.527344,258.722656 C878.527344,263.046875 880.089844,275.146484 880.089844,282.421875 C880.089844,289.697266 871.835937,295.972656 875.962891,298.384766 C880.089844,300.796875 874.269531,304.035156 877.179688,308.705078 C880.089844,313.375 877.027344,331.597656 877.027344,331.597656 C877.027344,331.597656 873.552734,349.931641 873.552734,352.341797 C873.552734,354.751953 867.318359,367.609375 867.318359,367.609375 C867.318359,367.609375 862.927734,357.681641 865.123047,355.011719 C867.318359,352.341797 863.146484,343.044922 865.232422,334.941406 C867.318359,326.837891 872.484375,316.646484 872.484375,312.675781 C872.484375,308.705078 867.96875,296.296875 870.226562,291.257813 C872.484375,286.21875 870.03125,281.332031 870.03125,272.513672 C870.03125,263.695313 873.789063,253.832031 873.789062,250.705078 C873.789062,247.578125 878.527344,254.398438 878.527344,258.722656 Z" id="Path-66"></path>
                <path d="M668.728516,43.1640625 C640.324644,33.4416646 606.621094,24.8457031 606.621094,24.8457031 C606.621094,24.8457031 639.242188,40.2871094 643.21875,40.2871094 C647.195312,40.2871094 654.515625,39.9609375 660.574219,45.6738281 C666.632812,51.3867187 676.429688,50.8007812 678.796875,50.8007812 C681.164062,50.8007812 681.75,59.6425781 687.941406,64.2910156 C694.132812,68.9394531 703.798828,69.4804688 707.947266,72.2402344 C712.095703,75 722.130859,72.5878906 722.130859,77.5839844 C722.130859,82.5800781 722.480469,86.6640625 726.585938,89.5976562 C730.691406,92.53125 740.943359,94.2207031 745.091797,98.3066406 C749.240234,102.392578 749.089844,107.582031 752.152344,110.146484 C755.214844,112.710937 764.490234,115.837891 768.378906,115.837891 C772.267578,115.837891 773.658203,125.957031 773.658203,129.869141 C773.658203,133.78125 776.521484,140.361328 781.302734,142.425781 C786.083984,144.490234 788.886719,148.636719 791.470703,152.091797 C794.054688,155.546875 793.230469,163.519531 796.488281,166.103516 C799.746094,168.6875 809.259766,171.232422 809.259766,177.117188 C809.259766,183.001953 806.501953,189.800781 809.955078,194.818359 C813.408203,199.835937 817.689453,202.246094 819.96875,207.589844 C822.248047,212.933594 828.460938,218.800781 830.525391,223.623047 C832.589844,228.445312 840.408203,241.910156 840.408203,246.167969 C840.408203,250.425781 841.755859,263.28125 841.755859,269.279297 C841.755859,275.277344 838.912109,276.884766 841.755859,284.791016 C844.599609,292.697266 847.378906,314.808594 847.378906,319.761719 C847.378906,324.714844 846.683594,345.585938 846.683594,348.476562 C846.683594,351.367188 849.574219,368.417969 849.574219,374.455078 C849.574219,380.492188 848.642578,385.316406 852.443359,385.316406 C856.244141,385.316406 853.919922,363.853516 855.982422,360.748047 C858.044922,357.642578 859.478516,352.5625 859.478516,346.302734 C859.478516,340.042969 859,292.783203 859,281.03125 C859,269.279297 863.703125,257.988281 856.638672,252.078125 C849.574219,246.167969 850.90625,230.966797 848.794922,224.732422 C846.683594,218.498047 846.669922,202.1875 844.212891,202.1875 C841.755859,202.1875 829.138672,194.478516 829.138672,190.066406 C829.138672,185.654297 828.097656,174.755859 822.015625,170.429688 C815.933594,166.103516 813.632812,151.605469 807.59375,147.015625 C801.554688,142.425781 787.154297,136.632812 787.154297,129.550781 C787.154297,122.46875 775.476562,105.103516 771.927734,101.705078 C768.378906,98.3066406 746.207031,92.0390625 744.123047,86.3261719 C742.039062,80.6132812 727.417969,73.3164063 727.417969,70.578125 C727.417969,67.8398438 713.820312,61.5390625 713.820312,61.5390625 C713.820312,61.5390625 676.057717,45.6727844 668.728516,43.1640625 Z" id="Path-67"></path>
            </g>
        </g>
    </g>
</svg>